<svg xmlns="http://www.w3.org/2000/svg" viewBox="0 0 100 100" fill="none">
  <!-- Earth circle -->
  <circle cx="50" cy="50" r="45" fill="#4cc9f0" opacity="0.2"/>
  <circle cx="50" cy="50" r="38" fill="#60d394"/>
  
  <!-- Continents -->
  <path d="M 30 35 Q 35 30, 40 35 L 45 40 Q 50 45, 45 50 L 40 55 Q 35 58, 30 55 Z" fill="#2d8659" opacity="0.8"/>
  <path d="M 55 25 Q 60 20, 68 25 L 72 30 Q 75 35, 70 40 L 65 43 Q 58 45, 55 40 Z" fill="#2d8659" opacity="0.8"/>
  <path d="M 25 60 Q 30 58, 35 62 L 38 68 Q 35 73, 28 72 Z" fill="#2d8659" opacity="0.8"/>
  <path d="M 60 60 Q 68 58, 72 65 L 70 72 Q 65 75, 60 70 Z" fill="#2d8659" opacity="0.8"/>
  
  <!-- Recycling arrows around earth -->
  <g transform="translate(50, 15)">
    <path d="M -8 -8 L -8 0 L -12 0 L -5 8 L 2 0 L -2 0 L -2 -8 Z" fill="#d4af37"/>
  </g>
  <g transform="translate(85, 50) rotate(120)">
    <path d="M -8 -8 L -8 0 L -12 0 L -5 8 L 2 0 L -2 0 L -2 -8 Z" fill="#d4af37"/>
  </g>
  <g transform="translate(50, 85) rotate(240)">
    <path d="M -8 -8 L -8 0 L -12 0 L -5 8 L 2 0 L -2 0 L -2 -8 Z" fill="#d4af37"/>
  </g>
  
  <!-- Center recycling symbol -->
  <circle cx="50" cy="50" r="15" fill="#fff" opacity="0.3"/>
  <text x="50" y="58" font-size="18" text-anchor="middle" fill="#2d8659" font-weight="bold">♻</text>
</svg>
