<svg xmlns="http://www.w3.org/2000/svg" viewBox="0 0 64 64" aria-hidden="true">
  <!-- White WhatsApp glyph only; button provides green background -->
  <path d="M32 14c-10 0-18 7.6-18 17.2 0 3.3 1 6.4 2.9 9.1l-2.2 7.2 7.5-2c2.5 1.4 5.4 2.1 8.3 2.1 10 0 18-7.6 18-17.2S42 14 32 14z" fill="none" stroke="#ffffff" stroke-width="4" stroke-linecap="round" stroke-linejoin="round"/>
  <path d="M24 26c-1 0-1.7.8-1.6 1.8.2 1.8 1.2 3.9 3.2 6.1 2 2.2 3.6 3.4 4.8 3.8 1 .3 1.8-.3 2.1-1.2l.4-.9c.2-.6 0-1.1-.5-1.3l-1.4-.7c-.5-.2-1.1-.1-1.5.3l-.4.4c-.3.3-.8.4-1.3.2-1-.5-2-1.4-3.3-2.9-1.3-1.5-2-2.7-2.4-3.6-.2-.4-.1-.9.2-1.2l.4-.4c.4-.4.6-1 .3-1.5l-.7-1.4c-.3-.6-.9-.9-1.4-.7l-1 .4c-.7.2-1.1.7-1.2 1.4z" fill="#ffffff"/>
</svg>
